<?xml version="1.0" encoding="UTF-8"?>
<svg width="648px" height="579px" viewBox="0 0 648 579" version="1.1" xmlns="http://www.w3.org/2000/svg" xmlns:xlink="http://www.w3.org/1999/xlink">
    <!-- Generator: Sketch 51.3 (57544) - http://www.bohemiancoding.com/sketch -->
    <title>art-slack</title>
    <desc>Created with Sketch.</desc>
    <defs>
        <linearGradient x1="-1.11022302e-14%" y1="50%" x2="84.2175354%" y2="50%" id="linearGradient-1">
            <stop stop-color="#24066A" stop-opacity="0.601760643" offset="0%"></stop>
            <stop stop-color="#FFFFFF" offset="100%"></stop>
        </linearGradient>
    </defs>
    <g id="Landing" stroke="none" stroke-width="1" fill="none" fill-rule="evenodd">
        <g id="landing-page-mvp" transform="translate(-1116.000000, -2037.000000)">
            <g id="present-anything" transform="translate(227.000000, 2037.000000)">
                <g id="illustration-slack-markup" transform="translate(889.000000, 0.000000)">
                    <rect id="Rectangle-14-Copy" fill="#F3F5FA" x="150" y="0" width="438" height="579" rx="20"></rect>
                    <path d="M640.596727,168.916803 C633.554957,165.200568 623.538916,166.812146 619.5988,174.415789 C599.947326,212.34101 579.805257,250.012281 559.165941,287.410698 C538.527136,324.809626 517.397736,361.937744 495.782343,398.781255 C486.575095,414.47549 477.278834,430.116583 467.897141,445.707092 C446.460286,428.004262 425.02292,410.30092 403.585554,392.59809 C396.104345,386.419523 388.623648,380.241978 381.14244,374.063922 C377.922614,371.40487 374.61531,369.574089 370.290492,369.574089 C366.526356,369.574089 362.030162,371.244428 359.438033,374.063922 C354.252754,379.706489 352.831099,390.285471 359.438033,395.742046 C385.819218,417.527473 412.198868,439.312899 438.580052,461.098325 C446.060749,467.276381 453.541446,473.454437 461.022655,479.632493 C464.917242,482.849006 468.797505,484.534673 473.914746,483.84845 C478.680026,483.208724 482.606842,480.682011 485.126839,476.529413 C507.283985,440.008831 528.967928,403.201598 550.161275,366.112824 C571.353599,329.024562 592.058908,291.658846 612.269016,254.026919 C623.705177,232.732528 634.981728,211.350763 646.102761,189.889287 C649.78965,182.773614 648.180249,172.918667 640.596727,168.916803" id="Fill-1" fill="#92A7D7"></path>
                    <g id="Group-10" transform="translate(0.000000, 122.000000)">
                        <circle id="Oval-2-Copy-3" fill-opacity="0.5" fill="#24066A" cx="263" cy="75" r="75"></circle>
                        <circle id="Oval-2-Copy-2" fill-opacity="0.75" fill="#24066A" cx="169" cy="75" r="75"></circle>
                        <rect id="Rectangle-13" fill="url(#linearGradient-1)" x="2" y="0" width="416" height="150" rx="75"></rect>
                        <circle id="Oval-2-Copy" fill="#FFFFFF" cx="357" cy="75" r="75"></circle>
                        <g id="slack">
                            <circle id="Oval-2" fill="#24066A" cx="75" cy="75" r="75"></circle>
                            <g id="np_slack_329775_000000" transform="translate(45.000000, 45.000000)" fill="#FFFFFF" fill-rule="nonzero">
                                <path d="M29.3869359,46.4339695 C30.0937484,48.9333401 31.3141292,51.9878134 31.5568302,53.5686893 C32.3531477,58.7688555 24.9458811,61.2538944 22.0387764,57.0565347 C20.6510863,55.0490627 20.587516,53.1939036 19.5343841,49.9170176 C15.8237243,50.9359549 13.8163745,52.4304203 11.0199449,52.0744039 C6.802713,51.5356479 5.70718084,45.7450234 8.68280155,43.1101303 C10.5534812,41.4540573 13.5997289,41.4891972 16.1960388,40.2898831 C16.1960388,40.2898831 13.7528645,32.646654 12.3557655,29.0019384 C9.5686241,29.8264668 5.48546887,31.5598356 3.67365506,31.1593246 C1.47082964,30.3066722 -0.037004751,28.5428409 0.000691108827,26.1793525 C0.0784410815,21.3586493 5.58673503,21.0073103 9.18460883,19.5387501 C8.29402153,16.7348735 6.82153077,14.7953427 7.01236229,11.7360123 C7.26209586,7.80310138 11.9528722,5.52656327 15.362146,7.91787574 C16.9736591,9.04691008 18.0173218,13.1625365 19.03511,16.2171296 L30.2238443,12.565338 C28.9445373,8.49420615 26.4919542,4.48855687 29.5547277,1.44109963 C31.8471185,-0.838076974 35.8948698,-0.261806527 37.5697722,2.10402052 C39.110598,4.28245474 39.2684381,6.93407835 40.0741645,9.24353763 C43.1015944,8.21524568 46.9185264,6.29910147 49.7689365,7.25951224 C52.1084321,8.04890081 53.2369556,11.124482 52.5984783,13.0616741 C51.4228499,16.7650363 47.1890922,17.256935 43.4145605,18.5382223 L47.0875245,29.826167 C50.2256897,28.804891 51.8159725,27.4861252 54.7678298,27.5024958 C57.7787941,27.5188929 59.6659393,29.6762527 59.9439237,31.8172084 C60.660145,37.3710523 54.3508231,37.8749441 50.4258698,39.2871365 C51.6321373,43.1685369 52.6593344,44.00242 52.5981164,47.0898744 C52.4920975,52.3720137 45.7821018,53.5949543 42.9123914,49.5798304 C41.8733728,48.1321983 41.6095018,45.8015111 40.5728958,42.7797192 C40.5728958,42.7797192 29.5632922,46.5885011 29.386574,46.4339095 L29.3869359,46.4339695 Z M37.2349124,33.1527646 L33.2273901,21.8648199 L22.3758076,25.6829564 L26.0487715,36.8047961 L37.2349124,33.1527646 Z" id="Shape"></path>
                            </g>
                        </g>
                    </g>
                </g>
            </g>
        </g>
    </g>
</svg>