<svg xmlns="http://www.w3.org/2000/svg" width="648" height="579">
  <defs>
    <linearGradient id="Gradient-0" y1=".5" x2=".842" y2=".5">
      <stop offset="0" stop-color="#24066a" stop-opacity=".6"/>
      <stop offset="1" stop-color="#fff"/>
    </linearGradient>
  </defs>
  <style>
    @keyframes Fill-1_t{0%,24%,to{transform:translate(0,0)}20%{transform:translate(0,0);animation-timing-function:cubic-bezier(.42,0,1,1)}22%{transform:translate(0,30.000001px);animation-timing-function:cubic-bezier(0,0,.58,1)}}@keyframes Oval-2-Copy-3_t{0%,12%,34%,to{transform:translate(263px,75px)}14%,32%{transform:translate(357px,75px)}}@keyframes Oval-2-Copy-2_t{0%,10%,36%,to{transform:translate(169px,75px)}14%,32%{transform:translate(357px,75px)}}@keyframes Rectangle-13_t{0%,8%{transform:translate(2px,0)}14%,32%{transform:translate(282px,0)}38%,to{transform:translate(0,0)}}@keyframes Rectangle-13_w{0%,8%{width:416px}14%,32%{width:136px}38%,to{width:418px}}@keyframes a0_t{0%,38%,to{transform:translate(75px,75px)}8%{transform:translate(75px,75px);animation-timing-function:cubic-bezier(.42,0,1,1)}14%{transform:translate(357px,75px)}32%{transform:translate(357px,75px);animation-timing-function:cubic-bezier(.42,0,1,1)}}@keyframes slack_t{0%,38%,8%,to{transform:rotate(0deg) translate(-75px,-75px)}14%,32%{transform:rotate(360deg) translate(-75px,-75px)}}
  </style>
  <g id="Landing" fill="none" fill-rule="evenodd">
    <g id="landing-page-mvp" transform="translate(-1116 -2037)">
      <g id="present-anything" transform="translate(227 2037)">
        <g id="illustration-slack-markup" transform="translate(889)">
          <rect id="Rectangle-14-Copy" fill="#F3F5FA" width="438" height="579" rx="20" transform="translate(150)"/>
          <path id="Fill-1" d="M640.597 168.917c-7.042-3.716-17.058-2.105-20.998 5.499a4894.065 4894.065 0 0 1-60.433 112.995 4869.407 4869.407 0 0 1-91.269 158.296l-64.311-53.109-22.444-18.534c-3.219-2.659-6.527-4.49-10.852-4.49-3.764 0-8.26 1.67-10.852 4.49-5.185 5.642-6.607 16.221 0 21.678l79.142 65.356 22.443 18.534c3.894 3.217 7.775 4.903 12.892 4.216 4.765-.639 8.692-3.166 11.212-7.319a4872.145 4872.145 0 0 0 160.976-286.64c3.687-7.115 2.077-16.97-5.506-20.972" fill="#92A7D7" style="animation:Fill-1_t 5s linear infinite both"/>
          <g id="Group-10" transform="translate(0 122)">
            <ellipse id="Oval-2-Copy-3" fill-opacity=".5" fill="#24066A" rx="75" ry="75" transform="translate(263 75)" style="animation:Oval-2-Copy-3_t 5s linear infinite both"/>
            <ellipse id="Oval-2-Copy-2" fill-opacity=".75" fill="#24066A" rx="75" ry="75" transform="translate(169 75)" style="animation:Oval-2-Copy-2_t 5s linear infinite both"/>
            <rect id="Rectangle-13" fill="url(#Gradient-0)" width="416" height="150" rx="75" transform="translate(2)" style="animation:Rectangle-13_t 5s linear infinite both,Rectangle-13_w 5s linear infinite both"/>
            <ellipse id="Oval-2-Copy" fill="#FFF" rx="75" ry="75" transform="translate(357 75)"/>
            <g style="animation:a0_t 5s linear infinite both">
              <g style="animation:slack_t 5s linear infinite both" id="slack">
                <ellipse id="Oval-2" fill="#24066A" rx="75" ry="75" transform="translate(75 75)"/>
                <g id="np_slack_329775_000000" fill="#FFF" fill-rule="nonzero" transform="translate(45 45)">
                  <path id="Shape" d="M29.387 46.434c.707 2.5 1.927 5.554 2.17 7.135.796 5.2-6.611 7.685-9.518 3.487-1.388-2.007-1.452-3.862-2.505-7.139-3.71 1.019-5.718 2.513-8.514 2.157-4.217-.538-5.313-6.329-2.337-8.964 1.87-1.656 4.917-1.62 7.513-2.82 0 0-2.443-7.643-3.84-11.288-2.787.825-6.87 2.558-8.682 2.157C1.47 30.307-.037 28.543 0 26.18c.077-4.82 5.586-5.172 9.184-6.64-.891-2.804-2.363-4.744-2.173-7.803.25-3.933 4.94-6.21 8.35-3.818 1.612 1.129 2.655 5.244 3.673 8.3l11.189-3.653c-1.28-4.07-3.732-8.076-.67-11.124 2.293-2.28 6.34-1.703 8.016.663 1.54 2.178 1.698 4.83 2.504 7.14 3.028-1.029 6.845-2.945 9.695-1.984 2.34.789 3.468 3.864 2.83 5.802-1.176 3.703-5.41 4.195-9.184 5.476l3.672 11.288c3.139-1.021 4.729-2.34 7.68-2.323 3.012.016 4.899 2.173 5.177 4.314.716 5.554-5.593 6.058-9.518 7.47 1.206 3.882 2.233 4.715 2.172 7.803-.106 5.282-6.816 6.505-9.686 2.49-1.039-1.448-1.303-3.779-2.34-6.8 0 0-11.009 3.809-11.185 3.654zm7.848-13.281l-4.008-11.288-10.851 3.818 3.673 11.122 11.186-3.652z"/>
                </g>
              </g>
            </g>
          </g>
        </g>
      </g>
    </g>
  </g>
</svg>
