<?xml version="1.0" encoding="UTF-8" standalone="no"?>
<!-- Created with Keyshape -->
<svg xmlns="http://www.w3.org/2000/svg" xmlns:xlink="http://www.w3.org/1999/xlink" width="648px" height="579px" viewBox="0 0 648 579">
    <defs>
        <linearGradient id="Gradient-0" x1="0" y1="0.5" x2="0.842175" y2="0.5">
            <stop offset="0" stop-color="#24066a" stop-opacity="0.6"/>
            <stop offset="1" stop-color="#ffffff"/>
        </linearGradient>
    </defs>
    <style>
@keyframes Fill-1_t { 0% { transform: translate(0px,0px); } 20% { transform: translate(0px,0px); animation-timing-function: cubic-bezier(0.42,0,1,1); } 22% { transform: translate(0px,30.000001px); animation-timing-function: cubic-bezier(0,0,0.58,1); } 24% { transform: translate(0px,0px); } 100% { transform: translate(0px,0px); } }
@keyframes Oval-2-Copy-3_t { 0% { transform: translate(263px,75px); } 12% { transform: translate(263px,75px); } 14% { transform: translate(357px,75px); } 32% { transform: translate(357px,75px); } 34% { transform: translate(263px,75px); } 100% { transform: translate(263px,75px); } }
@keyframes Oval-2-Copy-2_t { 0% { transform: translate(169px,75px); } 10% { transform: translate(169px,75px); } 14% { transform: translate(357px,75px); } 32% { transform: translate(357px,75px); } 36% { transform: translate(169px,75px); } 100% { transform: translate(169px,75px); } }
@keyframes Rectangle-13_t { 0% { transform: translate(2px,0px); } 8% { transform: translate(2px,0px); } 14% { transform: translate(282px,0px); } 32% { transform: translate(282px,0px); } 38% { transform: translate(0px,0px); } 100% { transform: translate(0px,0px); } }
@keyframes Rectangle-13_w { 0% { width: 416px; } 8% { width: 416px; } 14% { width: 136px; } 32% { width: 136px; } 38% { width: 418px; } 100% { width: 418px; } }
@keyframes a0_t { 0% { transform: translate(75px,75px); } 8% { transform: translate(75px,75px); animation-timing-function: cubic-bezier(0.42,0,1,1); } 14% { transform: translate(357px,75px); } 32% { transform: translate(357px,75px); animation-timing-function: cubic-bezier(0.42,0,1,1); } 38% { transform: translate(75px,75px); } 100% { transform: translate(75px,75px); } }
@keyframes slack_t { 0% { transform: rotate(0deg) translate(-75px,-75px); } 8% { transform: rotate(0deg) translate(-75px,-75px); } 14% { transform: rotate(360deg) translate(-75px,-75px); } 32% { transform: rotate(360deg) translate(-75px,-75px); } 38% { transform: rotate(0deg) translate(-75px,-75px); } 100% { transform: rotate(0deg) translate(-75px,-75px); } }
    </style>
    <title>art-slack</title>
    <desc>Created with Sketch.</desc>
    <g id="Landing" stroke="none" stroke-width="1" fill="none" fill-rule="evenodd">
        <g id="landing-page-mvp" transform="translate(-1116,-2037)">
            <g id="present-anything" transform="translate(227,2037)">
                <g id="illustration-slack-markup" transform="translate(889,0)">
                    <rect id="Rectangle-14-Copy" fill="#F3F5FA" width="438" height="579" rx="20" transform="translate(0,0) translate(150,0)"/>
                    <path id="Fill-1" d="M640.597,168.917C633.555,165.201,623.539,166.812,619.599,174.416C599.947,212.341,579.805,250.012,559.166,287.411C538.527,324.81,517.398,361.938,495.782,398.781C486.575,414.475,477.279,430.117,467.897,445.707C446.46,428.004,425.023,410.301,403.586,392.598C396.104,386.42,388.624,380.242,381.142,374.064C377.923,371.405,374.615,369.574,370.29,369.574C366.526,369.574,362.03,371.244,359.438,374.064C354.253,379.706,352.831,390.285,359.438,395.742C385.819,417.527,412.199,439.313,438.58,461.098C446.061,467.276,453.541,473.454,461.023,479.632C464.917,482.849,468.798,484.535,473.915,483.848C478.68,483.209,482.607,480.682,485.127,476.529C507.284,440.009,528.968,403.202,550.161,366.113C571.354,329.025,592.059,291.659,612.269,254.027C623.705,232.733,634.982,211.351,646.103,189.889C649.79,182.774,648.18,172.919,640.597,168.917" fill="#92A7D7" style="animation: Fill-1_t 5s linear infinite both;"/>
                    <g id="Group-10" transform="translate(0,122)">
                        <ellipse id="Oval-2-Copy-3" fill-opacity="0.5" fill="#24066A" rx="75" ry="75" transform="translate(0,0) translate(263,75)" style="animation: Oval-2-Copy-3_t 5s linear infinite both;"/>
                        <ellipse id="Oval-2-Copy-2" fill-opacity="0.75" fill="#24066A" rx="75" ry="75" transform="translate(0,0) translate(169,75)" style="animation: Oval-2-Copy-2_t 5s linear infinite both;"/>
                        <rect id="Rectangle-13" fill="url(#Gradient-0)" width="416" height="150" rx="75" transform="translate(0,0) translate(2,0)" style="animation: Rectangle-13_t 5s linear infinite both, Rectangle-13_w 5s linear infinite both;"/>
                        <ellipse id="Oval-2-Copy" fill="#FFFFFF" rx="75" ry="75" transform="translate(0,0) translate(357,75)"/>
                        <g id="slack" style="animation: a0_t 5s linear infinite both;">
                            <g transform="translate(75,75) translate(-75,-75)" style="animation: slack_t 5s linear infinite both;">
                                <ellipse id="Oval-2" fill="#24066A" rx="75" ry="75" transform="translate(0,0) translate(75,75)"/>
                                <g id="np_slack_329775_000000" fill="#FFFFFF" fill-rule="nonzero" transform="translate(45,45)">
                                    <path id="Shape" d="M29.3869,46.434C30.0937,48.9333,31.3141,51.9878,31.5568,53.5687C32.3531,58.7689,24.9459,61.2539,22.0388,57.0565C20.6511,55.0491,20.5875,53.1939,19.5344,49.917C15.8237,50.936,13.8164,52.4304,11.0199,52.0744C6.80271,51.5356,5.70718,45.745,8.6828,43.1101C10.5535,41.4541,13.5997,41.4892,16.196,40.2899C16.196,40.2899,13.7529,32.6467,12.3558,29.0019C9.56862,29.8265,5.48547,31.5598,3.67366,31.1593C1.47083,30.3067,-0.0370048,28.5428,0.000691106,26.1794C0.0784411,21.3586,5.58674,21.0073,9.18461,19.5388C8.29402,16.7349,6.82153,14.7953,7.01236,11.736C7.2621,7.8031,11.9529,5.52656,15.3621,7.91788C16.9737,9.04691,18.0173,13.1625,19.0351,16.2171L30.2238,12.5653C28.9445,8.49421,26.492,4.48856,29.5547,1.4411C31.8471,-0.838077,35.8949,-0.261807,37.5698,2.10402C39.1106,4.28245,39.2684,6.93408,40.0742,9.24354C43.1016,8.21525,46.9185,6.2991,49.7689,7.25951C52.1084,8.0489,53.237,11.1245,52.5985,13.0617C51.4228,16.765,47.1891,17.2569,43.4146,18.5382L47.0875,29.8262C50.2257,28.8049,51.816,27.4861,54.7678,27.5025C57.7788,27.5189,59.6659,29.6763,59.9439,31.8172C60.6601,37.3711,54.3508,37.8749,50.4259,39.2871C51.6321,43.1685,52.6593,44.0024,52.5981,47.0899C52.4921,52.372,45.7821,53.595,42.9124,49.5798C41.8734,48.1322,41.6095,45.8015,40.5729,42.7797C40.5729,42.7797,29.5633,46.5885,29.3866,46.4339L29.3869,46.434ZM37.2349,33.1528L33.2274,21.8648L22.3758,25.683L26.0488,36.8048L37.2349,33.1528Z"/>
                                </g>
                            </g>
                        </g>
                    </g>
                </g>
            </g>
        </g>
    </g>
</svg>
