<svg width="380" height="235" xmlns="http://www.w3.org/2000/svg">
  <g fill="none" fill-rule="evenodd">
    <rect fill="#F3F5FA" y="30" width="380" height="205" rx="20"/>
    <g transform="translate(69 42)">
      <rect fill="#FFF" y="59" width="248" height="186" rx="20"/>
      <circle fill="#92A7D7" cx="121" cy="59" r="16"/>
      <path d="M245.5 97.544c0 13.532-10.924 24.502-24.4 24.502-13.476 0-24.4-10.97-24.4-24.502 0 13.532-10.924 24.502-24.4 24.502-13.476 0-24.4-10.97-24.4-24.502 0 13.532-10.924 24.502-24.4 24.502-13.476 0-24.4-10.97-24.4-24.502 0 13.532-10.924 24.502-24.4 24.502-13.476 0-24.4-10.97-24.4-24.502 0 13.532-10.924 24.502-24.4 24.502-13.476 0-24.4-10.97-24.4-24.502" stroke="#1F0166" stroke-width="2"/>
    </g>
  </g>
</svg>
