<?xml version="1.0" encoding="UTF-8"?>
<svg width="380px" height="235px" viewBox="0 0 380 235" version="1.1" xmlns="http://www.w3.org/2000/svg" xmlns:xlink="http://www.w3.org/1999/xlink">
    <!-- Generator: Sketch 51.3 (57544) - http://www.bohemiancoding.com/sketch -->
    <title>art-easy</title>
    <desc>Created with Sketch.</desc>
    <defs>
        <rect id="path-1" x="0" y="0" width="248" height="186" rx="20"></rect>
    </defs>
    <g id="Page-1" stroke="none" stroke-width="1" fill="none" fill-rule="evenodd">
        <g id="art-easy" transform="translate(0.000000, 30.000000)">
            <rect id="Rectangle-path" fill="#F3F5FA" fill-rule="nonzero" x="0" y="0" width="380" height="205" rx="20"></rect>
            <g id="Group" transform="translate(69.000000, 71.000000)">
                <mask id="mask-2" fill="white">
                    <use xlink:href="#path-1"></use>
                </mask>
                <use id="Rectangle-path" fill="#FFFFFF" fill-rule="nonzero" xlink:href="#path-1"></use>
                <g id="Group-2" mask="url(#mask-2)" stroke="#1F0166" stroke-width="2">
                    <g transform="translate(-2.000000, 38.000000)">
                        <path d="M247,0.549562372 C247,14.2199264 235.964303,25.3020941 222.350511,25.3020941 C208.73672,25.3020941 197.701022,14.2199264 197.701022,0.549562372 C197.701022,14.2199264 186.665325,25.3020941 173.051534,25.3020941 C159.437742,25.3020941 148.402045,14.2199264 148.402045,0.549562372 C148.402045,14.2199264 137.366348,25.3020941 123.752556,25.3020941 C110.138765,25.3020941 99.1030675,14.2199264 99.1030675,0.549562372 C99.1030675,14.2199264 88.0673701,25.3020941 74.4535787,25.3020941 C60.8397873,25.3020941 49.80409,14.2199264 49.80409,0.549562372 C49.80409,14.2199264 38.7683926,25.3020941 25.1546012,25.3020941 C11.5408098,25.3020941 0.505112474,14.2199264 0.505112474,0.549562372" id="Shape"></path>
                        <path d="M493.494888,1.01022495 C493.494888,14.680589 482.45919,25.7627566 468.845399,25.7627566 C455.231607,25.7627566 444.19591,14.680589 444.19591,1.01022495 C444.19591,14.680589 433.160213,25.7627566 419.546421,25.7627566 C405.93263,25.7627566 394.896933,14.680589 394.896933,1.01022495 C394.896933,14.680589 383.861235,25.7627566 370.247444,25.7627566 C356.633652,25.7627566 345.597955,14.680589 345.597955,1.01022495 C345.597955,14.680589 334.562258,25.7627566 320.948466,25.7627566 C307.334675,25.7627566 296.298978,14.680589 296.298978,1.01022495 C296.298978,14.680589 285.26328,25.7627566 271.649489,25.7627566 C258.035697,25.7627566 247,14.680589 247,1.01022495" id="Shape-Copy"></path>
                    </g>
                </g>
            </g>
            <circle id="Oval" fill="#92A7D7" fill-rule="nonzero" cx="190" cy="71" r="16"></circle>
        </g>
    </g>
</svg>