<?xml version="1.0" encoding="UTF-8" standalone="no"?>
<!-- Created with Keyshape -->
<svg xmlns="http://www.w3.org/2000/svg" xmlns:xlink="http://www.w3.org/1999/xlink" width="380" height="235">
    <style>
@keyframes a0_t { 0% { transform: translate(106px,201.046611px) scale(1,1) translate(-20px,-80px); } 22.7272% { transform: translate(106px,201.046611px) scale(1,1) translate(-20px,-80px); } 25% { transform: translate(106px,201.046611px) scale(0.85,0.85) translate(-20px,-80px); } 27.2727% { transform: translate(106px,201.046611px) scale(1,1) translate(-20px,-80px); } 100% { transform: translate(106px,201.046611px) scale(1,1) translate(-20px,-80px); } }
@keyframes a1_t { 0% { transform: translate(100.000041px,107.000163px) scale(0.8,0.8) translate(-100.000041px,-107.000163px); } 25% { transform: translate(100.000041px,107.000163px) scale(0.8,0.8) translate(-100.000041px,-107.000163px); } 29.5454% { transform: translate(100.000041px,107.000163px) scale(1,1) translate(-100.000041px,-107.000163px); } 90.909% { transform: translate(100.000041px,107.000163px) scale(1,1) translate(-100.000041px,-107.000163px); } 100% { transform: translate(100.000041px,107.000163px) scale(0.8,0.8) translate(-100.000041px,-107.000163px); } }
@keyframes a1_o { 0% { opacity: 0; } 25% { opacity: 0; } 31.8182% { opacity: 1; } 90.9091% { opacity: 1; } 100% { opacity: 0; } }
    </style>
    <g fill="none" fill-rule="evenodd" transform="translate(0,-17)">
        <rect fill="#F3F5FA" width="380" height="205" rx="20" transform="translate(0,0) translate(0,47)"/>
        <g transform="translate(84,0)">
            <g transform="translate(106,201.047) translate(-20,-80)" style="animation: a0_t 4.4s linear infinite both;">
                <rect fill="#FFF" width="40" height="160" rx="20"/>
                <path d="M20,9C26.627,9,32,14.373,32,21L32,32L8,32L8,21C8,14.373,13.373,9,20,9Z" stroke="#1F0166" stroke-width="2" stroke-linecap="round"/>
            </g>
            <g fill="#92A7D7" stroke="#92A7D7" stroke-width="6" transform="translate(33.477,8.05814e-05) rotate(9)">
                <path d="M1.208,35.173L39.105,74.65L49.793,85.783C51.327,87.381,54.268,87.433,55.792,85.783C57.377,84.069,57.428,81.533,55.792,79.828L17.895,40.352L7.207,29.218C5.672,27.62,2.732,27.568,1.208,29.218C-0.377,30.932,-0.428,33.468,1.208,35.173M135.095,2.05C133.949,4.39356,132.825,6.74738,131.721,9.11118C130.618,11.475,129.536,13.8487,128.476,16.2319C127.415,18.6152,126.376,21.008,125.358,23.41C124.341,25.812,123.345,28.2231,122.371,30.643C120.89,34.318,119.461,38.014,118.085,41.7297C116.709,45.4454,115.385,49.1804,114.115,52.9338C112.846,56.6871,111.629,60.4583,110.467,64.2463C109.304,68.0342,108.195,71.8385,107.141,75.658C106.549,77.798,107.874,80.373,110.13,80.882C112.39,81.393,114.76,80.209,115.394,77.916C116.627,73.4527,117.934,69.0102,119.314,64.5902C120.694,60.1703,122.147,55.7735,123.673,51.4018C125.2,47.0301,126.798,42.684,128.468,38.3653C130.139,34.0466,131.88,29.7559,133.693,25.495L133.261,26.509C133.985,24.8083,134.721,23.1124,135.468,21.4213C136.215,19.7302,136.972,18.0441,137.741,16.363C138.51,14.6819,139.29,13.0058,140.081,11.3349C140.872,9.66404,141.673,7.99836,142.486,6.338C143.462,4.342,143.1,1.654,140.95,0.528C139.03,-0.48,136.14,-0.082,135.095,2.051M49.108,150.122C45.6493,154.637,42.2894,159.227,39.0308,163.888C35.7722,168.549,32.6156,173.281,29.5632,178.08C26.5109,182.879,23.5636,187.744,20.7234,192.671C17.8832,197.599,15.1507,202.587,12.528,207.634C11.5,209.608,11.958,212.356,14.048,213.466C16.001,214.504,18.752,214.047,19.85,211.936C22.4726,206.889,25.205,201.901,28.0452,196.973C30.8854,192.046,33.8327,187.181,36.885,182.382C39.9374,177.583,43.094,172.851,46.3526,168.19C49.6113,163.528,52.9712,158.939,56.43,154.424C57.053,153.612,57.114,152.075,56.858,151.14C56.588,150.152,55.827,149.08,54.909,148.593C53.925,148.07,52.733,147.808,51.642,148.163C50.518,148.528,49.821,149.191,49.108,150.122M139.128,150.928L181.488,182.447L193.558,191.427C194.389,192.047,195.899,192.119,196.852,191.857C197.843,191.585,198.917,190.821,199.406,189.9C199.93,188.911,200.193,187.714,199.836,186.617C199.473,185.497,198.813,184.772,197.872,184.072L155.512,152.553L143.442,143.572C142.611,142.954,141.101,142.882,140.148,143.142C139.157,143.415,138.083,144.179,137.594,145.1C137.07,146.089,136.807,147.286,137.164,148.382C137.527,149.503,138.187,150.228,139.128,150.928" opacity="0" transform="translate(100,107) scale(0.8,0.8) translate(-100,-107)" style="animation: a1_t 4.4s linear infinite both, a1_o 4.4s linear infinite both;"/>
            </g>
        </g>
    </g>
</svg>
