<svg width="380" height="235" xmlns="http://www.w3.org/2000/svg">
  <g transform="translate(0 -17)" fill="none" fill-rule="evenodd">
    <rect fill="#F3F5FA" y="47" width="380" height="205" rx="20"/>
    <g transform="translate(84)">
      <g transform="translate(86 118)">
        <rect fill="#FFF" width="40" height="160" rx="20"/>
        <path d="M20 9c6.627 0 12 5.373 12 12v11H8V21c0-6.627 5.373-12 12-12z" stroke="#1F0166" stroke-width="2" stroke-linecap="round"/>
      </g>
      <g transform="rotate(9 16.738 212.683)" fill="#92A7D7" stroke="#92A7D7" stroke-width="6">
        <path d="M1.208 35.173L39.105 74.65l10.688 11.133c1.534 1.598 4.475 1.65 5.999 0 1.585-1.714 1.636-4.25 0-5.955L17.895 40.352 7.207 29.218c-1.535-1.598-4.475-1.65-5.999 0-1.585 1.714-1.636 4.25 0 5.955M135.095 2.05a434.67 434.67 0 0 0-12.724 28.593 417.8 417.8 0 0 0-15.23 45.015c-.592 2.14.733 4.715 2.989 5.224 2.26.511 4.63-.673 5.264-2.966a418.647 418.647 0 0 1 18.299-52.421l-.432 1.014a422.687 422.687 0 0 1 9.225-20.171c.976-1.996.614-4.684-1.536-5.81-1.92-1.008-4.81-.61-5.855 1.523M49.108 150.122a391.258 391.258 0 0 0-36.58 57.512c-1.028 1.974-.57 4.722 1.52 5.832 1.953 1.038 4.704.581 5.802-1.53a391.19 391.19 0 0 1 36.58-57.512c.623-.812.684-2.349.428-3.284-.27-.988-1.031-2.06-1.949-2.547-.984-.523-2.176-.785-3.267-.43-1.124.365-1.821 1.028-2.534 1.959M139.128 150.928l42.36 31.519 12.07 8.98c.831.62 2.341.692 3.294.43.991-.272 2.065-1.036 2.554-1.957.524-.989.787-2.186.43-3.283-.363-1.12-1.023-1.845-1.964-2.545l-42.36-31.519-12.07-8.981c-.831-.618-2.341-.69-3.294-.43-.991.273-2.065 1.037-2.554 1.958-.524.989-.787 2.186-.43 3.282.363 1.121 1.023 1.846 1.964 2.546"/>
      </g>
    </g>
  </g>
</svg>
