<svg xmlns="http://www.w3.org/2000/svg" viewBox="0 0 129 30"><title>logo</title><rect width="12.31" height="30" style="fill:#1f0166"/><rect x="15.38" width="12.31" height="6.15" style="fill:#8ea3d1"/><rect x="15.38" y="9.23" width="12.31" height="6.15" style="fill:#8ea3d1"/><circle cx="21.54" cy="23.85" r="6.15" style="fill:#3400ff"/><path d="M52.6,25.21H40V4.78h3.94V21.9H52.6Z" style="fill:#1f0166"/><path d="M53.46,6.55a2.16,2.16,0,0,1,2.23-2,2.12,2.12,0,0,1,2.18,2.05,2.1,2.1,0,0,1-2.18,2.06A2.14,2.14,0,0,1,53.46,6.55Zm4.15,18.66H53.74V9.89h3.87Z" style="fill:#1f0166"/><path d="M68,25.21h-3.7L58.67,9.89h4l3.39,10.39h.16L69.6,9.89h4Z" style="fill:#1f0166"/><path d="M72.58,17.75c0-4.68,2.68-8.06,7.26-8.06,3.9,0,6.86,2.44,6.86,7.36v1.63H76.32c.25,2.27,1.45,3.65,3.65,3.65a3,3,0,0,0,3.1-2.13l3.47.94C86,23.25,84,25.5,80,25.5,75.41,25.5,72.58,22.54,72.58,17.75ZM76.43,16H83a3,3,0,0,0-3.22-3.18C78,12.83,76.84,14,76.43,16Z" style="fill:#1f0166"/><path d="M100.45,16.64h-7.9v8.57H88.61V4.78h13.2V8.09H92.55v5.25h7.9Z" style="fill:#1f0166"/><path d="M102.9,6.55a2.15,2.15,0,0,1,2.22-2,2.11,2.11,0,0,1,2.18,2.05,2.09,2.09,0,0,1-2.18,2.06A2.13,2.13,0,0,1,102.9,6.55Zm4.15,18.66h-3.88V9.89h3.88Z" style="fill:#1f0166"/><path d="M113.24,25.21h-3.87V4.78h3.87Z" style="fill:#1f0166"/><path d="M114.89,17.75c0-4.68,2.67-8.06,7.26-8.06,3.89,0,6.85,2.44,6.85,7.36v1.63H118.63c.25,2.27,1.45,3.65,3.65,3.65a3,3,0,0,0,3.09-2.13l3.47.94c-.55,2.11-2.55,4.36-6.53,4.36C117.71,25.5,114.89,22.54,114.89,17.75ZM118.74,16h6.59a3,3,0,0,0-3.21-3.18C120.35,12.83,119.15,14,118.74,16Z" style="fill:#1f0166"/></svg>